HIERARCHY
ROOT mixamorig:Hips
{
	OFFSET 0.000000 201.639420 0.000000
	CHANNELS 6 Xposition Yposition Zposition Xrotation Yrotation Zrotation
	JOINT mixamorig:Spine
	{
		OFFSET 0.006200 19.524994 -2.481800
		CHANNELS 3 Xrotation Yrotation Zrotation
		JOINT mixamorig:Spine1
		{
			OFFSET -0.000900 22.835007 -2.825400
			CHANNELS 3 Xrotation Yrotation Zrotation
			JOINT mixamorig:Spine2
			{
				OFFSET -0.020600 26.552490 -3.193300
				CHANNELS 3 Xrotation Yrotation Zrotation
				JOINT mixamorig:Neck
				{
					OFFSET -0.060000 30.701813 1.352200
					CHANNELS 3 Xrotation Yrotation Zrotation
					JOINT mixamorig:Head
					{
						OFFSET -0.087200 22.547607 3.670900
						CHANNELS 3 Xrotation Yrotation Zrotation
						JOINT mixamorig:HeadTop_End
						{
							OFFSET -0.830600 40.355194 7.893500
							CHANNELS 3 Xrotation Yrotation Zrotation
							End Site
							{
								OFFSET 0.000000 30.592346 0.000000
							}
						}
						JOINT mixamorig:RightEye
						{
							OFFSET -6.302100 18.118591 16.197100
							CHANNELS 3 Xrotation Yrotation Zrotation
							End Site
							{
								OFFSET 0.000000 30.592346 0.000000
							}
						}
						JOINT mixamorig:LeftEye
						{
							OFFSET 6.741500 18.382690 16.401899
							CHANNELS 3 Xrotation Yrotation Zrotation
							End Site
							{
								OFFSET 0.000000 30.592346 0.000000
							}
						}
					}
				}
				JOINT mixamorig:LeftShoulder
				{
					OFFSET 11.924900 18.230499 1.425400
					CHANNELS 3 Xrotation Yrotation Zrotation
					JOINT mixamorig:LeftArm
					{
						OFFSET 25.435989 -0.697632 -5.229300
						CHANNELS 3 Xrotation Yrotation Zrotation
						JOINT mixamorig:LeftForeArm
						{
							OFFSET 54.684776 0.000000 0.000000
							CHANNELS 3 Xrotation Yrotation Zrotation
							JOINT mixamorig:LeftHand
							{
								OFFSET 55.098175 0.000000 0.000000
								CHANNELS 3 Xrotation Yrotation Zrotation
								JOINT mixamorig:LeftHandMiddle1
								{
									OFFSET 23.369751 0.000000 0.000000
									CHANNELS 3 Xrotation Yrotation Zrotation
									JOINT mixamorig:LeftHandMiddle2
									{
										OFFSET 6.378677 0.000000 0.000000
										CHANNELS 3 Xrotation Yrotation Zrotation
										JOINT mixamorig:LeftHandMiddle3
										{
											OFFSET 6.148331 0.000000 0.000000
											CHANNELS 3 Xrotation Yrotation Zrotation
											JOINT mixamorig:LeftHandMiddle4
											{
												OFFSET 6.582504 0.000000 0.000000
												CHANNELS 3 Xrotation Yrotation Zrotation
												End Site
												{
													OFFSET -1.168900 6.395691 1.028606
												}
											}
										}
									}
								}
								JOINT mixamorig:LeftHandThumb1
								{
									OFFSET 7.235672 -3.848206 5.434273
									CHANNELS 3 Xrotation Yrotation Zrotation
									JOINT mixamorig:LeftHandThumb2
									{
										OFFSET 6.568451 -3.792297 3.792300
										CHANNELS 3 Xrotation Yrotation Zrotation
										JOINT mixamorig:LeftHandThumb3
										{
											OFFSET 6.063080 -3.500519 3.500518
											CHANNELS 3 Xrotation Yrotation Zrotation
											JOINT mixamorig:LeftHandThumb4
											{
												OFFSET 4.793182 -2.767334 2.767349
												CHANNELS 3 Xrotation Yrotation Zrotation
												End Site
												{
													OFFSET 0.101639 6.054260 1.275483
												}
											}
										}
									}
								}
								JOINT mixamorig:LeftHandIndex1
								{
									OFFSET 23.101074 -0.309540 4.992809
									CHANNELS 3 Xrotation Yrotation Zrotation
									JOINT mixamorig:LeftHandIndex2
									{
										OFFSET 6.226883 0.000000 0.000000
										CHANNELS 3 Xrotation Yrotation Zrotation
										JOINT mixamorig:LeftHandIndex3
										{
											OFFSET 6.094330 0.000000 0.000000
											CHANNELS 3 Xrotation Yrotation Zrotation
											JOINT mixamorig:LeftHandIndex4
											{
												OFFSET 5.482605 0.000000 0.000000
												CHANNELS 3 Xrotation Yrotation Zrotation
												End Site
												{
													OFFSET -1.427902 5.233032 0.797164
												}
											}
										}
									}
								}
								JOINT mixamorig:LeftHandRing1
								{
									OFFSET 22.299240 0.021149 -3.964172
									CHANNELS 3 Xrotation Yrotation Zrotation
									JOINT mixamorig:LeftHandRing2
									{
										OFFSET 6.321869 0.000000 0.000000
										CHANNELS 3 Xrotation Yrotation Zrotation
										JOINT mixamorig:LeftHandRing3
										{
											OFFSET 5.899796 0.000000 0.000000
											CHANNELS 3 Xrotation Yrotation Zrotation
											JOINT mixamorig:LeftHandRing4
											{
												OFFSET 6.517899 0.000000 0.000000
												CHANNELS 3 Xrotation Yrotation Zrotation
												End Site
												{
													OFFSET -1.637299 6.232208 0.980890
												}
											}
										}
									}
								}
								JOINT mixamorig:LeftHandPinky1
								{
									OFFSET 20.463791 -0.302338 -8.562233
									CHANNELS 3 Xrotation Yrotation Zrotation
									JOINT mixamorig:LeftHandPinky2
									{
										OFFSET 6.908646 0.000000 0.000000
										CHANNELS 3 Xrotation Yrotation Zrotation
										JOINT mixamorig:LeftHandPinky3
										{
											OFFSET 4.622849 0.000000 0.000000
											CHANNELS 3 Xrotation Yrotation Zrotation
											JOINT mixamorig:LeftHandPinky4
											{
												OFFSET 5.216080 0.000000 0.000000
												CHANNELS 3 Xrotation Yrotation Zrotation
												End Site
												{
													OFFSET -0.606308 5.116241 0.814926
												}
											}
										}
									}
								}
							}
						}
					}
				}
				JOINT mixamorig:RightShoulder
				{
					OFFSET -12.001300 18.284088 1.348900
					CHANNELS 3 Xrotation Yrotation Zrotation
					JOINT mixamorig:RightArm
					{
						OFFSET -25.308500 -0.751312 -5.164599
						CHANNELS 3 Xrotation Yrotation Zrotation
						JOINT mixamorig:RightForeArm
						{
							OFFSET -54.684429 0.000000 0.000000
							CHANNELS 3 Xrotation Yrotation Zrotation
							JOINT mixamorig:RightHand
							{
								OFFSET -55.150291 0.000000 0.000000
								CHANNELS 3 Xrotation Yrotation Zrotation
								JOINT mixamorig:RightHandMiddle1
								{
									OFFSET -23.317566 0.000000 0.000000
									CHANNELS 3 Xrotation Yrotation Zrotation
									JOINT mixamorig:RightHandMiddle2
									{
										OFFSET -6.378403 0.000000 0.000000
										CHANNELS 3 Xrotation Yrotation Zrotation
										JOINT mixamorig:RightHandMiddle3
										{
											OFFSET -6.148193 0.000000 0.000000
											CHANNELS 3 Xrotation Yrotation Zrotation
											JOINT mixamorig:RightHandMiddle4
											{
												OFFSET -6.583389 0.000000 0.000000
												CHANNELS 3 Xrotation Yrotation Zrotation
												End Site
												{
													OFFSET 1.171692 6.395905 1.029786
												}
											}
										}
									}
								}
								JOINT mixamorig:RightHandThumb1
								{
									OFFSET -7.190521 -3.860474 5.435846
									CHANNELS 3 Xrotation Yrotation Zrotation
									JOINT mixamorig:RightHandThumb2
									{
										OFFSET -6.567429 -3.791718 3.791708
										CHANNELS 3 Xrotation Yrotation Zrotation
										JOINT mixamorig:RightHandThumb3
										{
											OFFSET -6.062469 -3.500153 3.500166
											CHANNELS 3 Xrotation Yrotation Zrotation
											JOINT mixamorig:RightHandThumb4
											{
												OFFSET -4.792618 -2.767029 2.767022
												CHANNELS 3 Xrotation Yrotation Zrotation
												End Site
												{
													OFFSET -0.100327 6.053253 1.276754
												}
											}
										}
									}
								}
								JOINT mixamorig:RightHandIndex1
								{
									OFFSET -23.048981 -0.310791 4.992554
									CHANNELS 3 Xrotation Yrotation Zrotation
									JOINT mixamorig:RightHandIndex2
									{
										OFFSET -6.227539 0.000000 0.000000
										CHANNELS 3 Xrotation Yrotation Zrotation
										JOINT mixamorig:RightHandIndex3
										{
											OFFSET -6.095047 0.000000 0.000000
											CHANNELS 3 Xrotation Yrotation Zrotation
											JOINT mixamorig:RightHandIndex4
											{
												OFFSET -5.484772 0.000000 0.000000
												CHANNELS 3 Xrotation Yrotation Zrotation
												End Site
												{
													OFFSET 1.420593 5.237305 0.797056
												}
											}
										}
									}
								}
								JOINT mixamorig:RightHandRing1
								{
									OFFSET -22.246323 0.020569 -3.963762
									CHANNELS 3 Xrotation Yrotation Zrotation
									JOINT mixamorig:RightHandRing2
									{
										OFFSET -6.322128 0.000000 0.000000
										CHANNELS 3 Xrotation Yrotation Zrotation
										JOINT mixamorig:RightHandRing3
										{
											OFFSET -5.900024 0.000000 0.000000
											CHANNELS 3 Xrotation Yrotation Zrotation
											JOINT mixamorig:RightHandRing4
											{
												OFFSET -6.518356 0.000000 0.000000
												CHANNELS 3 Xrotation Yrotation Zrotation
												End Site
												{
													OFFSET 1.636398 6.232697 0.982186
												}
											}
										}
									}
								}
								JOINT mixamorig:RightHandPinky1
								{
									OFFSET -20.411011 -0.303314 -8.561701
									CHANNELS 3 Xrotation Yrotation Zrotation
									JOINT mixamorig:RightHandPinky2
									{
										OFFSET -6.907349 0.000000 0.000000
										CHANNELS 3 Xrotation Yrotation Zrotation
										JOINT mixamorig:RightHandPinky3
										{
											OFFSET -4.623840 0.000000 0.000000
											CHANNELS 3 Xrotation Yrotation Zrotation
											JOINT mixamorig:RightHandPinky4
											{
												OFFSET -5.218353 0.000000 0.000000
												CHANNELS 3 Xrotation Yrotation Zrotation
												End Site
												{
													OFFSET 0.602097 5.118835 0.816273
												}
											}
										}
									}
								}
							}
						}
					}
				}
			}
		}
	}
	JOINT mixamorig:LeftUpLeg
	{
		OFFSET 18.168400 -13.561905 -0.039000
		CHANNELS 3 Xrotation Yrotation Zrotation
		JOINT mixamorig:LeftLeg
		{
			OFFSET 0.577358 -80.825211 -3.695000
			CHANNELS 3 Xrotation Yrotation Zrotation
			JOINT mixamorig:LeftFoot
			{
				OFFSET -0.577356 -83.370262 -6.520700
				CHANNELS 3 Xrotation Yrotation Zrotation
				JOINT mixamorig:LeftToeBase
				{
					OFFSET 0.750401 -20.798306 25.135401
					CHANNELS 3 Xrotation Yrotation Zrotation
					JOINT mixamorig:LeftToe_End
					{
						OFFSET -0.000500 0.001200 19.917799
						CHANNELS 3 Xrotation Yrotation Zrotation
						End Site
						{
							OFFSET 0.000000 19.917805 0.000000
						}
					}
				}
			}
		}
	}
	JOINT mixamorig:RightUpLeg
	{
		OFFSET -18.162500 -13.585098 -0.041000
		CHANNELS 3 Xrotation Yrotation Zrotation
		JOINT mixamorig:RightLeg
		{
			OFFSET -0.595024 -80.945297 -3.631900
			CHANNELS 3 Xrotation Yrotation Zrotation
			JOINT mixamorig:RightFoot
			{
				OFFSET 0.595024 -83.218193 -6.561200
				CHANNELS 3 Xrotation Yrotation Zrotation
				JOINT mixamorig:RightToeBase
				{
					OFFSET -0.753601 -20.807106 25.115000
					CHANNELS 3 Xrotation Yrotation Zrotation
					JOINT mixamorig:RightToe_End
					{
						OFFSET 0.000299 0.001700 19.918200
						CHANNELS 3 Xrotation Yrotation Zrotation
						End Site
						{
							OFFSET 0.000000 19.918203 0.000000
						}
					}
				}
			}
		}
	}
}
MOTION
Frames: 4
Frame Time: 0.033333
1.066660 200.299057 -1.179584 -4.256398 -1.818938 -1.281891 2.988258 1.553771 2.731196 0.784100 0.355040 2.126394 0.758907 0.365551 2.127555 7.837540 -0.416477 1.842820 -2.202420 -1.524372 5.705598 0.000000 0.000000 0.000001 0.000000 0.000000 0.000001 0.000000 0.000000 0.000001 -4.194907 -10.629017 -12.187720 14.541929 -29.181099 -69.727612 -0.000007 -8.712712 0.000001 -16.022522 3.463500 -2.018789 -0.115367 2.668751 -17.258227 0.266067 1.747112 -17.316676 0.297674 1.845397 -18.325007 0.000002 0.000001 0.000002 -0.277929 2.873162 4.559608 12.088794 25.869883 16.921438 -13.728719 3.783413 9.053722 -0.000005 0.000000 0.000001 -0.258871 -0.929900 -10.599949 0.272995 1.769161 -17.542450 0.060059 0.837682 -8.202839 -0.000000 0.000001 0.000001 0.102096 3.534848 -20.782811 0.345684 1.984411 -19.761634 0.248207 1.688791 -16.720896 -0.000000 0.000002 -0.000001 0.855204 5.501880 -27.458013 0.306705 1.872423 -18.603340 0.277981 1.784870 -17.703219 -0.000002 -0.000000 0.000004 -1.708097 -0.115380 13.410556 23.226770 35.336639 58.232547 -0.000015 10.084224 0.000003 -15.520509 1.034893 2.508598 -0.154684 -2.051386 14.136100 0.174486 -1.264154 15.717093 0.197456 -1.343057 16.726435 -0.000001 0.000000 -0.000001 -1.455641 -0.650078 -3.871879 13.451400 -31.205072 -15.915884 -15.459580 -3.762185 -12.770549 0.000002 0.000002 0.000003 0.046016 1.415047 6.267831 0.202569 -1.359930 16.943199 0.040883 -0.616433 7.589539 -0.000000 -0.000000 -0.000002 0.076735 -3.151743 19.175133 0.275089 -1.578433 19.771149 0.197300 -1.342528 16.719639 -0.000000 0.000001 0.000001 0.516891 -4.520893 26.225058 0.220401 -1.417174 17.679245 0.198578 -1.346794 16.774458 -0.000001 -0.000001 0.000002 -11.946315 14.118635 8.218483 11.946147 -0.694440 3.384664 3.365426 0.616229 -7.233928 -4.795865 0.000002 -0.000000 -0.000000 -0.000001 -0.000000 -2.284852 -10.946042 1.006827 10.323743 -10.049601 -4.693125 -3.509463 -4.372187 4.238177 -7.343867 -0.000009 0.000001 -0.000000 -0.000000 -0.000000 
1.033589 200.294937 -1.319389 -4.078806 -2.165644 -1.279855 3.042836 1.543162 2.741287 0.841381 0.338223 2.151811 0.816262 0.348498 2.153103 7.919253 -0.397713 1.384166 -2.666804 -1.427724 4.656702 0.000000 0.000000 0.000002 0.000000 0.000000 0.000002 0.000000 0.000000 0.000002 -4.086262 -11.006706 -12.261818 15.262654 -30.936013 -69.324105 -0.000001 -8.831418 -0.000007 -15.918984 3.591592 -2.147950 -0.116790 2.667264 -17.293363 0.265421 1.745055 -17.295519 0.297002 1.843345 -18.303898 -0.000002 -0.000002 0.000000 -0.275841 2.875750 4.574877 12.105254 25.901066 16.911799 -13.724305 3.796120 9.054631 0.000000 -0.000002 -0.000003 -0.267798 -0.931562 -10.681018 0.273259 1.769986 -17.550752 0.060185 0.838510 -8.211144 -0.000001 0.000000 0.000002 0.097339 3.520062 -20.736299 0.343779 1.979120 -19.706716 0.246618 1.683483 -16.666758 -0.000005 0.000000 -0.000001 0.853097 5.498676 -27.421674 0.302791 1.860778 -18.483298 0.274254 1.773164 -17.583198 0.000001 -0.000001 0.000004 -1.646059 0.261590 13.425562 23.847786 35.557511 57.629141 -0.000001 10.241087 -0.000009 -14.597537 1.341882 1.865616 -0.153401 -2.047122 14.044007 0.172747 -1.257953 15.638015 0.195599 -1.336889 16.647300 0.000001 0.000005 0.000002 -1.449022 -0.663890 -3.868622 13.471489 -31.242173 -15.909514 -15.458996 -3.763507 -12.770960 0.000001 0.000001 0.000001 0.044654 1.432505 6.233371 0.199423 -1.349560 16.810045 0.039464 -0.605682 7.456495 0.000001 0.000000 -0.000000 0.074044 -3.141004 19.097236 0.273603 -1.574302 19.717315 0.196031 -1.338320 16.665793 0.000001 -0.000003 0.000003 0.517998 -4.521358 26.113608 0.216940 -1.406276 17.539031 0.195303 -1.335885 16.634347 -0.000001 -0.000000 -0.000002 -12.104839 14.076164 8.210020 11.912213 -0.307581 3.444251 3.415575 0.607643 -7.272961 -4.799791 0.000003 -0.000000 0.000000 0.000001 0.000000 -2.665396 -10.868212 0.941030 10.519734 -10.050331 -4.619207 -3.531154 -4.110023 4.179349 -7.347569 -0.000002 -0.000001 0.000000 -0.000002 -0.000000 
0.981833 200.291504 -1.483405 -3.873073 -2.529127 -1.330773 3.101958 1.537570 2.747992 0.902580 0.328441 2.163153 0.877410 0.338633 2.164822 7.933511 -0.360841 1.023716 -3.632460 -1.227450 3.735451 0.000000 0.000000 -0.000000 0.000000 0.000000 -0.000000 0.000000 0.000000 -0.000000 -3.972306 -11.306468 -12.309506 14.950242 -30.796367 -69.495556 -0.000004 -8.761118 -0.000018 -16.393779 3.027521 -1.247744 -0.120890 2.653329 -17.286348 0.266127 1.747314 -17.318655 0.297741 1.845600 -18.327143 0.000002 0.000004 -0.000001 -0.279151 2.871079 4.565646 12.097862 25.887202 16.916056 -13.719343 3.810487 9.055657 -0.000004 0.000000 0.000001 -0.277308 -0.942548 -10.730324 0.273710 1.771436 -17.565592 0.060418 0.840021 -8.225914 0.000000 0.000001 -0.000004 0.092163 3.499941 -20.605359 0.342549 1.975679 -19.671080 0.245590 1.680040 -16.631628 -0.000002 -0.000002 -0.000003 0.847051 5.490340 -27.347220 0.298809 1.848780 -18.359840 0.270446 1.761109 -17.459760 -0.000002 0.000001 -0.000005 -1.579641 0.668397 13.453789 23.651699 35.313369 57.540082 -0.000004 10.227505 -0.000008 -14.708023 1.486121 1.637093 -0.155947 -2.040225 14.075944 0.171284 -1.252692 15.570960 0.194043 -1.331659 16.580253 -0.000002 0.000001 -0.000002 -1.443336 -0.676175 -3.863580 13.500855 -31.296296 -15.900361 -15.457823 -3.766145 -12.771755 -0.000002 -0.000001 -0.000001 0.047857 1.415241 6.245013 0.198786 -1.347435 16.782675 0.039178 -0.603471 7.429128 0.000002 -0.000001 0.000000 0.070765 -3.131282 19.089100 0.271823 -1.569330 19.652293 0.194528 -1.333250 16.600770 -0.000001 -0.000001 0.000001 0.509885 -4.508080 26.072768 0.215066 -1.400296 17.461969 0.193512 -1.329860 16.557157 -0.000001 0.000003 0.000001 -12.298842 14.023851 8.254297 11.850152 0.093990 3.521704 3.479905 0.600510 -7.290327 -4.817968 -0.000011 -0.000001 0.000000 0.000000 0.000000 -3.022176 -10.787706 0.939229 10.620339 -10.050372 -4.515949 -3.501887 -3.827200 4.082888 -7.352573 0.000000 -0.000000 -0.000001 0.000000 -0.000000 
0.895445 200.292969 -1.667046 -3.659719 -2.874316 -1.418136 3.159296 1.533955 2.741553 0.963284 0.322325 2.150660 0.938037 0.332901 2.152745 7.903903 -0.320972 0.788921 -4.683333 -0.947656 2.944149 0.000000 -0.000000 0.000001 0.000000 -0.000000 0.000001 0.000000 -0.000000 0.000001 -3.854309 -11.539526 -12.366765 13.963890 -29.234111 -69.937585 -0.000009 -8.495982 0.000003 -17.465888 2.345327 -0.802456 -0.125422 2.646383 -17.371874 0.266206 1.747569 -17.321302 0.297833 1.845862 -18.329866 -0.000001 -0.000001 0.000000 -0.257403 2.914427 4.514084 12.107902 25.906286 16.910158 -13.714951 3.823115 9.056553 -0.000002 -0.000002 -0.000003 -0.292100 -0.946090 -10.860538 0.273259 1.770006 -17.551062 0.060197 0.838536 -8.211295 -0.000003 -0.000001 -0.000002 0.091246 3.497356 -20.602422 0.341057 1.971494 -19.627583 0.244318 1.675785 -16.588369 -0.000000 0.000002 0.000001 0.847399 5.489917 -27.323730 0.295026 1.837371 -18.242513 0.266855 1.749651 -17.342467 0.000000 -0.000002 0.000005 -1.509830 1.127991 13.479809 22.887163 34.755920 57.803959 -0.000006 10.043749 0.000012 -15.640247 1.274854 2.059954 -0.143790 -2.081208 13.996795 0.169443 -1.246100 15.486889 0.192092 -1.325086 16.496126 -0.000001 -0.000002 -0.000002 -1.469012 -0.630144 -3.837990 13.487999 -31.272926 -15.903822 -15.472774 -3.732439 -12.761242 0.000002 -0.000002 -0.000000 0.063134 1.446975 5.973111 0.197856 -1.344417 16.743864 0.038774 -0.600342 7.390344 0.000002 -0.000003 -0.000004 0.087133 -3.176686 19.034624 0.269813 -1.563666 19.578409 0.192800 -1.327481 16.526998 0.000001 0.000000 -0.000001 0.464529 -4.436794 26.108647 0.211480 -1.388876 17.315038 0.190091 -1.318314 16.409376 0.000000 0.000003 0.000001 -12.502736 13.973846 8.354361 11.745311 0.466871 3.591260 3.574226 0.591380 -7.315071 -4.839805 -0.000006 -0.000000 -0.000000 0.000000 0.000000 -3.328775 -10.734131 0.982156 10.626559 -10.052471 -4.374004 -3.430449 -3.525670 3.943390 -7.355399 -0.000010 -0.000000 -0.000001 -0.000001 -0.000000 
